<?xml version="1.0" encoding="UTF-8" standalone="no"?>
<!-- Created with Inkscape (http://www.inkscape.org/) -->

<svg
   xmlns:dc="http://purl.org/dc/elements/1.1/"
   xmlns:cc="http://creativecommons.org/ns#"
   xmlns:rdf="http://www.w3.org/1999/02/22-rdf-syntax-ns#"
   xmlns:svg="http://www.w3.org/2000/svg"
   xmlns="http://www.w3.org/2000/svg"
   xmlns:sodipodi="http://sodipodi.sourceforge.net/DTD/sodipodi-0.dtd"
   xmlns:inkscape="http://www.inkscape.org/namespaces/inkscape"
   width="340.84964mm"
   height="144.49777mm"
   viewBox="0 0 1207.7349 511.99998"
   id="svg2"
   version="1.1"
   inkscape:version="0.91 r13725"
   sodipodi:docname="galileo-icons.svg">
  <defs
     id="defs4">
    <clipPath
       clipPathUnits="userSpaceOnUse"
       id="clipPath5493">
      <path
         d="m 319.2,180.05 a 15.38,15.38 0 0 0 -15.844,15.375 15.38,15.38 0 0 0 13.938,15.281 c 0.48443,1.1039 0.87573,2.2956 1.1875,3.5 -8.3725,3.159 -15.775,7.5346 -22.094,12.938 -0.57066,-0.42629 -1.3434,-0.8054 -2.3438,-1.25 -55.508,-10.607 -74.605,25.093 -75.312,30.75 -0.70711,5.6568 38.515,14.485 59.375,-6.375 0.27075,-0.27075 0.45453,-0.45474 0.71875,-0.71875 -6.1713,12.024 -9.4062,25.97 -9.4062,40.844 0,4.854 0.65511,9.6273 1.8438,14.25 -0.286,-0.5859 -0.574,-1.1581 -0.84375,-1.75 4.8817,25.798 26.977,47.835 48.469,60.344 0.0244,0.85251 0.04,1.6561 0.0625,2.7188 0.0267,1.2756 0.0449,2.7199 0.0625,4.2812 0.004,0.33456 0.028,0.59124 0.0312,0.9375 0.17908,19.336 -0.67159,57.426 -8.75,87.906 -40.197,16.233 -68.576,55.612 -68.562,101.62 -5e-4,1.7017 0.0487,3.3798 0.125,5.0625 0.003,0.009 -0.003,0.0221 0,0.0312 0.007,0.14622 0.024,0.29143 0.0312,0.4375 0.002,0.0311 -0.002,0.0627 0,0.0937 0.0365,0.71921 0.0747,1.4408 0.125,2.1562 0.11104,1.5891 0.25939,3.149 0.4375,4.7188 0.0369,0.32439 0.054,0.64523 0.0937,0.96875 0.0625,0.5104 0.14925,1.023 0.21875,1.5312 0.0457,0.33271 0.0763,0.66825 0.125,1 0.20283,1.3884 0.4331,2.7541 0.6875,4.125 0.0836,0.44958 0.19221,0.89611 0.28125,1.3438 0.0845,0.42517 0.16065,0.85787 0.25,1.2812 0.066,0.31202 0.11888,0.62646 0.1875,0.9375 0.0774,0.35163 0.16922,0.71215 0.25,1.0625 0.14763,0.63838 0.27876,1.2722 0.4375,1.9062 0.49858,1.9965 1.081,3.9548 1.6875,5.9062 0.1302,0.41808 0.2712,0.83408 0.40625,1.25 0.23691,0.73095 0.46699,1.4634 0.71875,2.1875 0.13052,0.3746 0.27179,0.75226 0.40625,1.125 0.13522,0.37556 0.26706,0.75136 0.40625,1.125 0.0964,0.25828 0.183,0.5239 0.28125,0.78125 0.14371,0.3769 0.28977,0.7501 0.4375,1.125 0.13289,0.33672 0.27014,0.66492 0.40625,1 0.32491,0.80128 0.65681,1.6145 1,2.4062 0.0131,0.0303 0.0181,0.0635 0.0312,0.0937 0.27848,0.64083 0.5847,1.2719 0.875,1.9062 0.0527,0.11501 0.10313,0.22895 0.15625,0.34375 0.24665,0.53408 0.49505,1.0644 0.75,1.5938 0.12067,0.25012 0.2525,0.50094 0.375,0.75 2.2186,4.5172 4.735,8.8594 7.5312,13 0.0716,0.10594 0.14676,0.20683 0.21875,0.3125 0.42273,0.62128 0.84618,1.2317 1.2812,1.8438 0.0605,0.085 0.1268,0.16522 0.1875,0.25 6.9941,9.78 15.548,18.361 25.312,25.375 -5.2668,5.6966 -8.4688,13.243 -8.4688,21.531 0,10.075 14.68,9.375 32.75,9.375 18.07,0 32.719,-0.28422 32.719,-9.375 0,-0.40744 -0.0159,-0.81498 -0.0312,-1.2188 2.2701,0.14036 4.5383,0.21875 6.8438,0.21875 2.7729,0 5.5289,-0.11006 8.25,-0.3125 -0.0178,0.43462 -0.0625,0.87362 -0.0625,1.3125 0,9.0908 14.68,9.375 32.75,9.375 18.07,0 32.719,0.69984 32.719,-9.375 0,-8.5694 -3.443,-16.336 -9.0312,-22.094 0.30562,-0.22362 0.60305,-0.4608 0.90625,-0.6875 0.007,-0.005 0.0247,0.005 0.0312,0 4.2237,-3.1596 8.185,-6.6198 11.906,-10.344 0.61427,-0.61427 1.2441,-1.2151 1.8438,-1.8438 0.005,-0.006 -0.005,-0.0257 0,-0.0312 0.60462,-0.63414 1.1918,-1.2578 1.7812,-1.9062 4.7147,-5.189 8.9349,-10.82 12.594,-16.844 0.005,-0.008 -0.005,-0.0237 0,-0.0312 2.2862,-3.7663 4.3606,-7.6728 6.1875,-11.719 0.36182,-0.79991 0.71948,-1.5962 1.0625,-2.4062 3.1129,-7.3643 5.4623,-15.167 6.9062,-23.25 0.002,-0.0101 -0.002,-0.0212 0,-0.0312 0.319,-1.7886 0.6127,-3.5888 0.84375,-5.4062 10e-4,-0.0103 -0.001,-0.021 0,-0.0312 0.11462,-0.90365 0.22004,-1.8084 0.3125,-2.7188 10e-4,-0.0103 -0.001,-0.021 0,-0.0312 0.18547,-1.8314 0.31214,-3.6743 0.40625,-5.5312 0.0947,-1.8661 0.15625,-3.7667 0.15625,-5.6562 0,-1.904 -0.0602,-3.7757 -0.15625,-5.6562 -0.007,-0.14691 -0.0233,-0.29074 -0.0312,-0.4375 -0.0431,-0.78304 -0.0967,-1.5651 -0.15625,-2.3438 -0.0339,-0.44775 -0.0544,-0.89752 -0.0937,-1.3438 -0.014,-0.15765 -0.0478,-0.31129 -0.0625,-0.46875 -0.13459,-1.4565 -0.27769,-2.9043 -0.46875,-4.3438 -0.003,-0.0205 0.003,-0.042 0,-0.0625 -0.10339,-0.77553 -0.22422,-1.5422 -0.34375,-2.3125 -0.12638,-0.8114 -0.26215,-1.6321 -0.40625,-2.4375 -0.27744,-1.5556 -0.59513,-3.0929 -0.9375,-4.625 -0.0537,-0.23973 -0.10101,-0.47962 -0.15625,-0.71875 -0.0337,-0.14601 -0.0595,-0.29171 -0.0937,-0.4375 -0.17312,-0.73554 -0.37463,-1.4578 -0.5625,-2.1875 -0.1068,-0.41554 -0.20096,-0.83638 -0.3125,-1.25 -0.0505,-0.18706 -0.10474,-0.37584 -0.15625,-0.5625 -0.15811,-0.57404 -0.33282,-1.1485 -0.5,-1.7188 -0.16562,-0.56401 -0.32558,-1.1273 -0.5,-1.6875 -0.2901,-0.93349 -0.59203,-1.8586 -0.90625,-2.7812 -0.25261,-0.74001 -0.51332,-1.486 -0.78125,-2.2188 -10.834,-29.692 -34.146,-53.353 -63.594,-64.688 -0.37407,-1.2606 -0.74277,-2.5257 -1.0938,-3.8125 -0.056,-0.20554 -0.10086,-0.41885 -0.15625,-0.625 -0.5292,-1.9667 -1.0532,-3.9538 -1.5312,-5.9688 -0.33519,-1.4155 -0.62649,-2.8475 -0.9375,-4.2812 -0.0972,-0.44752 -0.21756,-0.89475 -0.3125,-1.3438 -0.67404,-3.1931 -1.3116,-6.4173 -1.875,-9.6562 -0.004,-0.0203 0.004,-0.0422 0,-0.0625 -3.4542,-19.881 -4.9146,-40.146 -5.5312,-54.938 -10e-4,-0.0336 0.001,-0.0602 0,-0.0937 -0.13915,-3.3512 -0.24539,-6.4361 -0.3125,-9.1562 -0.0209,-0.89298 -0.0179,-1.5658 -0.0312,-2.375 25.906,-13.25 54.312,-41.269 54.312,-73.688 0,-0.68101 -0.0199,-1.3542 -0.0312,-2.0312 0,-0.20067 10e-4,-0.39342 0,-0.59375 -0.002,-0.0935 0.002,-0.18788 0,-0.28125 -0.0624,-6.882 -0.84021,-13.562 -2.3125,-19.938 -1.2151,-5.6348 -2.8954,-10.999 -5.0938,-16.062 0.11905,0.51784 0.20159,1.0405 0.3125,1.5625 -0.8736,-2.017 -1.8168,-4.0159 -2.8438,-5.9375 0.40783,0.40733 0.70122,0.70122 1.125,1.125 20.86,20.86 60.082,12.032 59.375,6.375 -0.70711,-5.6568 -19.773,-41.357 -75.281,-30.75 -1.1728,0.52125 -2.0848,0.95218 -2.6562,1.4688 -6.3598,-5.4385 -13.735,-9.8672 -22.031,-13.062 0.32353,-1.2761 0.76479,-2.524 1.2812,-3.6875 a 15.38,15.38 0 0 0 13.125,-15.188 15.38,15.38 0 0 0 -30.75,0 15.38,15.38 0 0 0 5.9062,12.094 c -0.18645,1.1267 -0.44973,2.2475 -0.8125,3.375 -6.6063,-1.5144 -13.684,-2.3438 -21.188,-2.3438 -7.6642,0 -14.831,0.82425 -21.5,2.3125 -0.41845,-1.307 -0.68762,-2.6106 -0.875,-3.9062 a 15.38,15.38 0 0 0 5.2188,-11.531 15.38,15.38 0 0 0 -14.906,-15.375 z"
         inkscape:connector-curvature="0"
         style="fill:#2e3436"
         id="path5495" />
    </clipPath>
    <clipPath
       clipPathUnits="userSpaceOnUse"
       id="clipPath3565">
      <rect
         style="opacity:1;fill:#ff9955;fill-opacity:1;stroke:none;stroke-width:1.31500006;stroke-miterlimit:4;stroke-dasharray:none;stroke-dashoffset:0;stroke-opacity:1"
         id="rect3567"
         width="205.93018"
         height="204.76451"
         x="248.23911"
         y="170.53633" />
    </clipPath>
  </defs>
  <sodipodi:namedview
     id="base"
     pagecolor="#ffffff"
     bordercolor="#666666"
     borderopacity="1.0"
     inkscape:pageopacity="0.0"
     inkscape:pageshadow="2"
     inkscape:zoom="0.53085527"
     inkscape:cx="830.53609"
     inkscape:cy="133.51208"
     inkscape:document-units="px"
     inkscape:current-layer="layer1"
     showgrid="false"
     fit-margin-top="0"
     fit-margin-left="0"
     fit-margin-right="0"
     fit-margin-bottom="0"
     inkscape:window-width="1366"
     inkscape:window-height="692"
     inkscape:window-x="0"
     inkscape:window-y="24"
     inkscape:window-maximized="1" />
  <metadata
     id="metadata7">
    <rdf:RDF>
      <cc:Work
         rdf:about="">
        <dc:format>image/svg+xml</dc:format>
        <dc:type
           rdf:resource="http://purl.org/dc/dcmitype/StillImage" />
        <dc:title></dc:title>
      </cc:Work>
    </rdf:RDF>
  </metadata>
  <g
     inkscape:label="Camada 1"
     inkscape:groupmode="layer"
     id="layer1"
     transform="translate(784.21794,-438.07278)">
    <g
       id="icon-512">
      <g
         transform="translate(-784.21794,438.07278)"
         id="g4458">
        <polygon
           style="fill:#092339"
           points="512,512 0,512 0,478.609 55.652,211.478 512,256 "
           id="polygon4404" />
        <polygon
           style="fill:#134a79"
           points="512,256 55.652,256 0,33.391 0,0 512,0 "
           id="polygon4406" />
        <path
           inkscape:connector-curvature="0"
           style="fill:#f9b233"
           d="m 0,33.391 0,445.217 c 122.943,0 222.609,-99.665 222.609,-222.609 C 222.609,133.055 122.943,33.391 0,33.391 Z"
           id="path4408" />
        <path
           inkscape:connector-curvature="0"
           style="fill:#fb8454"
           d="m 411.826,256 c 0,18.442 14.949,33.391 33.391,33.391 L 460.058,256 445.218,222.609 c -18.443,0 -33.392,14.949 -33.392,33.391 z"
           id="path4410" />
        <path
           inkscape:connector-curvature="0"
           style="fill:#fd5575"
           d="m 445.217,222.609 0,66.783 c 18.442,0 33.391,-14.949 33.391,-33.391 0,-18.442 -14.949,-33.392 -33.391,-33.392 z"
           id="path4412" />
        <rect
           x="239.304"
           y="395.13"
           style="fill:#fde0ae"
           width="33.390999"
           height="33.390999"
           id="rect4414" />
        <rect
           x="428.522"
           y="83.477997"
           style="fill:#ffffff"
           width="33.390999"
           height="33.390999"
           id="rect4416" />
        <path
           inkscape:connector-curvature="0"
           style="fill:#77aad4"
           d="m 256,256 c 0,33.81 27.408,61.217 61.217,61.217 L 344.425,256 317.218,194.783 C 283.408,194.783 256,222.19 256,256 Z"
           id="path4418" />
        <path
           inkscape:connector-curvature="0"
           style="fill:#4a8ec6"
           d="m 317.217,194.783 0,122.435 c 33.81,0 61.217,-27.408 61.217,-61.217 0,-33.809 -27.407,-61.218 -61.217,-61.218 z"
           id="path4420" />
        <g
           id="g4422" />
        <g
           id="g4424" />
        <g
           id="g4426" />
        <g
           id="g4428" />
        <g
           id="g4430" />
        <g
           id="g4432" />
        <g
           id="g4434" />
        <g
           id="g4436" />
        <g
           id="g4438" />
        <g
           id="g4440" />
        <g
           id="g4442" />
        <g
           id="g4444" />
        <g
           id="g4446" />
        <g
           id="g4448" />
        <g
           id="g4450" />
      </g>
    </g>
    <g
       transform="matrix(0.5,0,0,0.5,-173.66048,566.07278)"
       id="icon-256"
       inkscape:label="#icon-256">
      <polygon
         style="fill:#092339"
         points="55.652,211.478 512,256 512,512 0,512 0,478.609 "
         id="polygon4486" />
      <polygon
         style="fill:#134a79"
         points="0,0 512,0 512,256 55.652,256 0,33.391 "
         id="polygon4488" />
      <path
         inkscape:connector-curvature="0"
         style="fill:#f9b233"
         d="m 0,33.391 0,445.217 c 122.943,0 222.609,-99.665 222.609,-222.609 C 222.609,133.055 122.943,33.391 0,33.391 Z"
         id="path4490" />
      <path
         inkscape:connector-curvature="0"
         style="fill:#fb8454"
         d="m 411.826,256 c 0,18.442 14.949,33.391 33.391,33.391 L 460.058,256 445.218,222.609 c -18.443,0 -33.392,14.949 -33.392,33.391 z"
         id="path4492" />
      <path
         inkscape:connector-curvature="0"
         style="fill:#fd5575"
         d="m 445.217,222.609 0,66.783 c 18.442,0 33.391,-14.949 33.391,-33.391 0,-18.442 -14.949,-33.392 -33.391,-33.392 z"
         id="path4494" />
      <rect
         x="239.304"
         y="395.13"
         style="fill:#fde0ae"
         width="33.390999"
         height="33.390999"
         id="rect4496" />
      <rect
         x="428.522"
         y="83.477997"
         style="fill:#ffffff"
         width="33.390999"
         height="33.390999"
         id="rect4498" />
      <path
         inkscape:connector-curvature="0"
         style="fill:#77aad4"
         d="m 256,256 c 0,33.81 27.408,61.217 61.217,61.217 L 344.425,256 317.218,194.783 C 283.408,194.783 256,222.19 256,256 Z"
         id="path4500" />
      <path
         inkscape:connector-curvature="0"
         style="fill:#4a8ec6"
         d="m 317.217,194.783 0,122.435 c 33.81,0 61.217,-27.408 61.217,-61.217 0,-33.809 -27.407,-61.218 -61.217,-61.218 z"
         id="path4502" />
      <g
         id="g4504" />
      <g
         id="g4506" />
      <g
         id="g4508" />
      <g
         id="g4510" />
      <g
         id="g4512" />
      <g
         id="g4514" />
      <g
         id="g4516" />
      <g
         id="g4518" />
      <g
         id="g4520" />
      <g
         id="g4522" />
      <g
         id="g4524" />
      <g
         id="g4526" />
      <g
         id="g4528" />
      <g
         id="g4530" />
      <g
         id="g4532" />
    </g>
    <g
       id="icon-128"
       transform="matrix(0.25,0,0,0.25,209.51696,630.07278)"
       inkscape:label="#icon-128">
      <polygon
         id="polygon4536"
         points="512,512 0,512 0,478.609 55.652,211.478 512,256 "
         style="fill:#092339" />
      <polygon
         id="polygon4538"
         points="512,256 55.652,256 0,33.391 0,0 512,0 "
         style="fill:#134a79" />
      <path
         id="path4540"
         d="m 0,33.391 0,445.217 c 122.943,0 222.609,-99.665 222.609,-222.609 C 222.609,133.055 122.943,33.391 0,33.391 Z"
         style="fill:#f9b233"
         inkscape:connector-curvature="0" />
      <path
         id="path4542"
         d="m 411.826,256 c 0,18.442 14.949,33.391 33.391,33.391 L 460.058,256 445.218,222.609 c -18.443,0 -33.392,14.949 -33.392,33.391 z"
         style="fill:#fb8454"
         inkscape:connector-curvature="0" />
      <path
         id="path4544"
         d="m 445.217,222.609 0,66.783 c 18.442,0 33.391,-14.949 33.391,-33.391 0,-18.442 -14.949,-33.392 -33.391,-33.392 z"
         style="fill:#fd5575"
         inkscape:connector-curvature="0" />
      <rect
         id="rect4546"
         height="33.390999"
         width="33.390999"
         style="fill:#fde0ae"
         y="395.13"
         x="239.304" />
      <rect
         id="rect4548"
         height="33.390999"
         width="33.390999"
         style="fill:#ffffff"
         y="83.477997"
         x="428.522" />
      <path
         id="path4550"
         d="m 256,256 c 0,33.81 27.408,61.217 61.217,61.217 L 344.425,256 317.218,194.783 C 283.408,194.783 256,222.19 256,256 Z"
         style="fill:#77aad4"
         inkscape:connector-curvature="0" />
      <path
         id="path4552"
         d="m 317.217,194.783 0,122.435 c 33.81,0 61.217,-27.408 61.217,-61.217 0,-33.809 -27.407,-61.218 -61.217,-61.218 z"
         style="fill:#4a8ec6"
         inkscape:connector-curvature="0" />
      <g
         id="g4554" />
      <g
         id="g4556" />
      <g
         id="g4558" />
      <g
         id="g4560" />
      <g
         id="g4562" />
      <g
         id="g4564" />
      <g
         id="g4566" />
      <g
         id="g4568" />
      <g
         id="g4570" />
      <g
         id="g4572" />
      <g
         id="g4574" />
      <g
         id="g4576" />
      <g
         id="g4578" />
      <g
         id="g4580" />
      <g
         id="g4582" />
    </g>
    <g
       transform="matrix(0.06640625,0,0,0.06640625,389.51696,677.07278)"
       id="icon-34">
      <polygon
         style="fill:#092339"
         points="0,512 0,478.609 55.652,211.478 512,256 512,512 "
         id="polygon4586" />
      <polygon
         style="fill:#134a79"
         points="55.652,256 0,33.391 0,0 512,0 512,256 "
         id="polygon4588" />
      <path
         inkscape:connector-curvature="0"
         style="fill:#f9b233"
         d="m 0,33.391 0,445.217 c 122.943,0 222.609,-99.665 222.609,-222.609 C 222.609,133.055 122.943,33.391 0,33.391 Z"
         id="path4590" />
      <path
         inkscape:connector-curvature="0"
         style="fill:#fb8454"
         d="m 411.826,256 c 0,18.442 14.949,33.391 33.391,33.391 L 460.058,256 445.218,222.609 c -18.443,0 -33.392,14.949 -33.392,33.391 z"
         id="path4592" />
      <path
         inkscape:connector-curvature="0"
         style="fill:#fd5575"
         d="m 445.217,222.609 0,66.783 c 18.442,0 33.391,-14.949 33.391,-33.391 0,-18.442 -14.949,-33.392 -33.391,-33.392 z"
         id="path4594" />
      <rect
         x="239.304"
         y="395.13"
         style="fill:#fde0ae"
         width="33.390999"
         height="33.390999"
         id="rect4596" />
      <rect
         x="428.522"
         y="83.477997"
         style="fill:#ffffff"
         width="33.390999"
         height="33.390999"
         id="rect4598" />
      <path
         inkscape:connector-curvature="0"
         style="fill:#77aad4"
         d="m 256,256 c 0,33.81 27.408,61.217 61.217,61.217 L 344.425,256 317.218,194.783 C 283.408,194.783 256,222.19 256,256 Z"
         id="path4600" />
      <path
         inkscape:connector-curvature="0"
         style="fill:#4a8ec6"
         d="m 317.217,194.783 0,122.435 c 33.81,0 61.217,-27.408 61.217,-61.217 0,-33.809 -27.407,-61.218 -61.217,-61.218 z"
         id="path4602" />
      <g
         id="g4604" />
      <g
         id="g4606" />
      <g
         id="g4608" />
      <g
         id="g4610" />
      <g
         id="g4612" />
      <g
         id="g4614" />
      <g
         id="g4616" />
      <g
         id="g4618" />
      <g
         id="g4620" />
      <g
         id="g4622" />
      <g
         id="g4624" />
      <g
         id="g4626" />
      <g
         id="g4628" />
      <g
         id="g4630" />
      <g
         id="g4632" />
    </g>
  </g>
</svg>
